<?xml version='1.0' encoding='utf-8'?>
<svg xmlns="http://www.w3.org/2000/svg" version="1.1" viewBox="0 0 180 180"> <g fill="none" fill-rule="evenodd"> <g fill="#000"> <path d="m82.419 180h-1.4142l-81.005-81.005v-2.8284l6.1665-6.1665-6.1665-6.1665v-2.8284l81.005-81.005 1.4142 1e-14 1.4142-1e-14 6.1665 6.1665 6.1665-6.1665h2.8284l81.005 81.005v2.8284l-6.1665 6.1665 6.1665 6.1665v2.8284l-81.005 81.005h-2.8284l-6.1665-6.1665-6.1665 6.1665h-1.4142zm0-1.4142-81.005-81.005 7.5807-7.5807-7.5807-7.5807 81.005-81.005 7.5807 7.5807 7.5807-7.5807 81.005 81.005-7.5807 7.5807 7.5807 7.5807-81.005 81.005-7.5807-7.5807-7.5807 7.5807zm92.778-178.59-25.833 7e-14c1.033 2.9245 2.6164 5.5886 4.6257 7.868-1.8458 1.8143-2.9904 4.3395-2.9904 7.132 0 5.5228 4.4772 10 10 10 1.6569 0 3 1.3431 3 3v4h16v-32l-4.8027 1e-14c0.51051 0.88252 0.80269 1.9071 0.80269 3 0 3.3137-2.6863 6-6 6s-6-2.6863-6-6c0-1.0929 0.29218-2.1175 0.80269-3l10.395 1.6705e-6h-13.685c-0.33165 0.93834-0.51212 1.9481-0.51212 3v4c-4.4183 0-8 3.5817-8 8s3.5817 8 8 8c2.7614 0 5 2.2386 5 5v2h4v-4h2v4h4v-4h2v4h2v-30h-4.8027v1e-14zm-15.783-1e-14c-0.26973 0.95366-0.41406 1.96-0.41406 3v2.2c-1.2494 0.25362-2.4143 0.74018-3.4472 1.4124-1.7162-1.9302-3.0976-4.1646-4.0534-6.6124h7.9147v-6e-14zm20.586 17h-3l2.1429-10h0.85714v10zm-30.635 163c-0.8838-2.5021-1.3647-5.1947-1.3647-8 0-13.255 10.748-24 23.991-24h8.0095v32h-30.635zm12.147 0c0.50049-1.416 1.3453-2.6694 2.4338-3.6595l-1.3454-1.4799c-1.4988 1.3634-2.6196 3.1351-3.1865 5.1394h-7.9147c-0.96808-2.4793-1.4994-5.1775-1.4994-8 0-12.15 9.8406-22 22.001-22h7.9989v30h-18.488zm13.685 0c-1.0374-1.7934-2.9765-3-5.1973-3s-4.1599 1.2066-5.1973 3h10.395zm-175.2-32h8.0095c13.25 0 23.991 10.742 23.991 24 0 2.8051-0.48137 5.4978-1.3659 8h-30.634v-32zm0 2h7.9989c12.151 0 22.001 9.8471 22.001 22 0 2.8223-0.53097 5.5205-1.4986 8h-7.9154c-0.56688-2.0043-1.6876-3.776-3.1865-5.1394l-1.3454 1.4799c1.0885 0.99013 1.9333 2.2435 2.4338 3.6595h-18.488v-30zm15.197 30c-1.0374-1.7934-2.9765-3-5.1973-3s-4.1599 1.2066-5.1973 3h10.395zm-15.197-148h16v-4c0-1.6569 1.3431-3 3-3 5.5228 0 10-4.4772 10-10 0-2.7935-1.1455-5.3195-2.9923-7.1339 2.0093-2.2791 3.593-4.9426 4.6264-7.8661l-30.634-8e-14v32zm0-2h2v-4h2v4h4v-4h2v4h4v-2c0-2.7614 2.2386-5 5-5 4.4183 0 8-3.5817 8-8s-3.5817-8-8-8v-4c0-1.0519-0.18046-2.0617-0.51212-3l-18.488 1.7e-13v30zm28.501-30c-0.95542 2.4481-2.3366 4.6829-4.0527 6.6134-1.0333-0.6727-2.1987-1.1596-3.4487-1.4134v-2.2c0-1.04-0.14433-2.0463-0.41406-3l7.9154 6e-14v1.7e-13zm-28.501 17h3l-2.1429-10h-0.85714v10zm15.197-17c0.51051 0.88252 0.80269 1.9071 0.80269 3 0 3.3137-2.6863 6-6 6s-6-2.6863-6-6c0-1.0929 0.29218-2.1175 0.80269-3l10.395 1.2e-13 -5.8e-6 -1.6705e-6zm93.803 115c-1.6569 0-3 1.3431-3 3v4h-32v-4c0-1.6569-1.3431-3-3-3-5.5228 0-10-4.4772-10-10 0-2.7926 1.1447-5.3178 2.9904-7.132-3.7284-4.2295-5.9904-9.7839-5.9904-15.868 0-13.255 10.748-24 23.991-24h16.019c13.25 0 23.991 10.742 23.991 24 0 6.0824-2.2633 11.636-5.9923 15.866 1.8469 1.8144 2.9923 4.3404 2.9923 7.1339 0 5.5228-4.4772 10-10 10zm0-2c-2.7614 0-5 2.2386-5 5v2h-4v-4h-2v4h-4v-4h-2v4h-4v-4h-2v4h-4v-4h-2v4h-4v-2c0-2.7614-2.2386-5-5-5-4.4183 0-8-3.5817-8-8s3.5817-8 8-8v-4c0-2.6393 1.1361-5.0133 2.9459-6.6595l-1.3454-1.4799c-2.212 2.0121-3.6005 4.9136-3.6005 8.1394v2.2c-1.2494 0.25362-2.4143 0.74018-3.4472 1.4124-3.4544-3.8853-5.5528-9.0032-5.5528-14.612 0-12.15 9.8406-22 22.001-22h15.998c12.151 0 22.001 9.8471 22.001 22 0 5.6089-2.0971 10.728-5.5513 14.613-1.0333-0.6727-2.1987-1.1596-3.4487-1.4134v-2.2c0-3.2258-1.3885-6.1273-3.6005-8.1394l-1.3454 1.4799c1.8098 1.6463 2.9459 4.0202 2.9459 6.6595v4c4.4183 0 8 3.5817 8 8s-3.5817 8-8 8zm-18.143-16 2.1429 10h-6l2.1429-10h1.7143zm-10.857 2c3.3137 0 6-2.6863 6-6s-2.6863-6-6-6-6 2.6863-6 6 2.6863 6 6 6zm20 0c3.3137 0 6-2.6863 6-6s-2.6863-6-6-6-6 2.6863-6 6 2.6863 6 6 6z"/> </g> </g> </svg>